#!OML:ASF H:\Male1\Project 1\Capture day 1\Session 1\Male1.ASF
:FULLY-SPECIFIED
:DEGREES
226
root -2.75838 14.3908 4.8411 96.9539 -83.9599 -95.1555
lowerback 27.0047 4.5029 -1.49069
upperback 16.9686 3.45578 -0.529427
thorax 4.07858 0.862683 -0.57061
lowerneck -2.62407 4.78762 14.1394
upperneck 3.45703 6.05391 -7.13669
head 2.10064 3.05176 -4.23908
rclavicle 4.45278e-014 -1.51076e-014
rhumerus 11.5762 17.99 -82.0453
rradius 40.8809
rwrist -26.824
rhand -19.4687 -2.78703
rfingers 7.12502
rthumb 6.85271 -32.6561
lclavicle 4.45278e-014 -1.51076e-014
lhumerus 14.0605 -13.2792 74.8077
lradius 37.6653
lwrist 13.7596
lhand -20.6973 15.6744
lfingers 7.12502
lthumb 5.66658 45.5787
rfemur -33.6902 -1.43273 27.2655
rtibia 78.3701
rfoot -11.8643 -16.5032
rtoes -27.1784
lfemur -41.0047 3.12816 -10.7828
ltibia 38.6417
lfoot -2.18215 9.84277
ltoes -4.5673
227
root -2.89446 14.3586 4.92248 95.2714 -83.7792 -92.6613
lowerback 28.0088 4.50445 -1.46686
upperback 17.4791 3.30344 -0.445207
thorax 4.23093 0.734083 -0.490979
lowerneck -2.38023 4.78734 14.0972
upperneck 2.53183 6.07075 -7.04322
head 1.78217 3.04622 -4.21792
rclavicle -3.18055e-014 -4.53229e-014
rhumerus 14.4152 18.9719 -80.3938
rradius 41.0745
rwrist -26.98
rhand -19.813 -2.26622
rfingers 7.12502
rthumb 6.52038 -32.1458
lclavicle -3.18055e-014 -4.53229e-014
lhumerus 17.6748 -13.2104 73.7209
lradius 36.5932
lwrist 10.5522
lhand -21.3304 14.6434
lfingers 7.12502
lthumb 5.05535 44.5631
rfemur -37.1707 -1.84084 28.0453
rtibia 78.1754
rfoot -13.0349 -17.2183
rtoes -27.3271
lfemur -42.8025 4.18092 -11.4044
ltibia 40.9306
lfoot -2.97782 8.59085
ltoes -5.14605
228
root -3.02886 14.3215 4.99991 93.896 -83.6097 -90.361
lowerback 28.9851 4.50269 -1.40134
upperback 17.9176 3.16622 -0.402804
thorax 4.32742 0.62459 -0.480654
lowerneck -2.09257 4.78581 14.1123
upperneck 1.5578 6.0925 -7.01227
head 1.44676 3.04119 -4.22782
rclavicle 2.70347e-014 3.97569e-015
rhumerus 17.3149 19.7414 -78.7039
rradius 41.1027
rwrist -27.2035
rhand -20.1544 -1.73165
rfingers 7.12502
rthumb 6.19077 -31.6212
lclavicle 2.70347e-014 3.97569e-015
lhumerus 21.1353 -13.0084 72.6744
lradius 35.5831
lwrist 7.84029
lhand -21.9988 13.7543
lfingers 7.12502
lthumb 4.4099 43.6884
rfemur -40.5325 -2.10539 28.8713
rtibia 77.1915
rfoot -14.0895 -17.5437
rtoes -28.6175
lfemur -44.6752 5.03618 -11.9841
ltibia 43.1375
lfoot -3.87511 7.56813
ltoes -5.50208
229
root -3.16173 14.2798 5.07317 92.7223 -83.4945 -88.1599
lowerback 29.9288 4.49751 -1.34104
upperback 18.2892 3.03536 -0.403368
thorax 4.37065 0.526582 -0.512972
lowerneck -1.78407 4.78 14.1989
upperneck 0.517948 6.11214 -7.08788
head 1.09433 3.03237 -4.28457
rclavicle 4.77083e-015 2.54444e-014
rhumerus 20.1872 20.2668 -77.0491
rradius 41.0544
rwrist -27.5571
rhand -20.4619 -1.35687
rfingers 7.12502
rthumb 5.8939 -31.2549
lclavicle 4.77083e-015 2.54444e-014
lhumerus 24.4498 -12.7219 71.682
lradius 34.6396
lwrist 5.80052
lhand -22.5359 13.0928
lfingers 7.12502
lthumb 3.89125 43.037
rfemur -43.7521 -2.28196 29.6636
rtibia 75.5502
rfoot -15.1083 -17.6035
rtoes -29.7273
lfemur -46.6147 5.71357 -12.5789
ltibia 45.2722
lfoot -4.83872 6.73823
ltoes -5.69602
230
root -3.29283 14.2347 5.14245 91.5738 -83.4272 -85.8889
lowerback 31.1566 4.48554 -1.32815
upperback 18.6031 2.88771 -0.440144
thorax 4.08074 0.421327 -0.525733
lowerneck -1.56894 4.79858 14.2732
upperneck -0.561383 6.15191 -7.23712
head 0.75008 3.03032 -4.361
rclavicle 2.62396e-014 -3.81667e-014
rhumerus 23.0098 20.5804 -75.4783
rradius 40.9969
rwrist -28.067
rhand -20.7462 -1.17005
rfingers 7.12502
rthumb 5.61936 -31.0755
lclavicle 2.62396e-014 -3.81667e-014
lhumerus 27.6531 -12.3197 70.7588
lradius 33.773
lwrist 4.49405
lhand -22.8302 12.6891
lfingers 7.12502
lthumb 3.60711 42.6383
rfemur -46.7806 -2.473 30.4429
rtibia 73.3564
rfoot -15.9503 -17.6821
rtoes -30.8538
lfemur -48.6158 6.21398 -13.1848
ltibia 47.3341
lfoot -5.84416 6.08135
ltoes -5.80931
231
root -3.42219 14.1876 5.20688 90.5476 -83.3762 -83.6524
lowerback 32.0405 4.45465 -1.33358
upperback 18.8992 2.72471 -0.463382
thorax 4.08039 0.310533 -0.529176
lowerneck -1.53073 4.85618 14.2964
upperneck -1.62301 6.21798 -7.43586
head 0.443373 3.03906 -4.44061
rclavicle -1.59028e-014 -9.54166e-015
rhumerus 25.7651 20.6919 -74.0415
rradius 40.9921
rwrist -28.7267
rhand -21.0196 -1.22394
rfingers 7.12502
rthumb 5.35542 -31.1363
lclavicle -1.59028e-014 -9.54166e-015
lhumerus 30.8126 -11.8904 69.7527
lradius 32.9973
lwrist 3.99355
lhand -22.888 12.5287
lfingers 7.12502
lthumb 3.55126 42.4789
rfemur -49.6095 -2.70241 31.2478
rtibia 70.7315
rfoot -16.6685 -17.777
rtoes -31.4518
lfemur -50.6692 6.58397 -13.7699
ltibia 49.3176
lfoot -6.86465 5.55947
ltoes -5.91088
232
root -3.55005 14.1398 5.26537 89.5365 -83.3302 -81.3591
lowerback 32.8622 4.42368 -1.35948
upperback 19.1737 2.56492 -0.478589
thorax 4.08584 0.202543 -0.51054
lowerneck -1.6102 4.93254 14.2694
upperneck -2.71343 6.28843 -7.64858
head 0.147391 3.04788 -4.51548
rclavicle 2.22639e-014 -8.34896e-015
rhumerus 28.4133 20.5778 -72.7759
rradius 41.0546
rwrist -29.5439
rhand -21.266 -1.46726
rfingers 7.12502
rthumb 5.11752 -31.3855
lclavicle 2.22639e-014 -8.34896e-015
lhumerus 33.9031 -11.4951 68.6427
lradius 32.3381
lwrist 4.15271
lhand -22.7601 12.5404
lfingers 7.12502
lthumb 3.67475 42.4885
rfemur -52.2204 -3.0006 32.1073
rtibia 67.819
rfoot -17.2244 -17.8513
rtoes -31.7109
lfemur -52.7543 6.85647 -14.3283
ltibia 51.2126
lfoot -7.8719 5.12547
ltoes -6.02547
233
root -3.6767 14.0908 5.31811 88.8412 -83.287 -79.3306
lowerback 33.6119 4.41205 -1.38044
upperback 19.4247 2.43906 -0.50375
thorax 4.09907 0.116334 -0.510179
lowerneck -1.82627 5.02287 14.2188
upperneck -3.72787 6.35523 -7.81507
head -0.10624 3.05407 -4.56906
rclavicle 2.8625e-014 -2.0276e-014
rhumerus 30.923 20.2372 -71.709
rradius 41.1415
rwrist -30.4769
rhand -21.5461 -1.72878
rfingers 7.12502
rthumb 4.84704 -31.6533
lclavicle 2.8625e-014 -2.0276e-014
lhumerus 36.9425 -11.213 67.3467
lradius 31.7934
lwrist 4.82485
lhand -22.53 12.7013
lfingers 7.12502
lthumb 3.89701 42.6454
rfemur -54.6076 -3.3431 33.035
rtibia 64.7775
rfoot -17.5437 -17.8226
rtoes -31.8165
lfemur -54.8488 7.08884 -14.8579
ltibia 53.0209
lfoot -8.84374 4.75446
ltoes -6.18932
234
root -3.80049 14.04 5.36378 87.9666 -83.2555 -77.1318
lowerback 34.3753 4.41753 -1.36093
upperback 19.6273 2.35349 -0.540621
thorax 4.06217 0.059486 -0.552433
lowerneck -2.0643 5.09113 14.1774
upperneck -4.68503 6.38748 -7.90586
head -0.345458 3.04239 -4.6014
rclavicle 1.03368e-014 4.53229e-014
rhumerus 33.1937 19.6222 -70.9207
rradius 41.2362
rwrist -31.485
rhand -21.8566 -1.98568
rfingers 7.12502
rthumb 4.54723 -31.9169
lclavicle 1.03368e-014 4.53229e-014
lhumerus 39.8934 -11.0876 65.902
lradius 31.3611
lwrist 5.78841
lhand -22.259 12.9151
lfingers 7.12502
lthumb 4.15866 42.8543
rfemur -56.7504 -3.76249 34.0219
rtibia 61.7985
rfoot -17.4832 -17.6547
rtoes -31.8526
lfemur -56.9096 7.27836 -15.379
ltibia 54.7475
lfoot -9.74356 4.39083
ltoes -6.44931
235
root -3.92233 13.9872 5.40359 87.0496 -83.2674 -74.9197
lowerback 35.1175 4.44335 -1.31283
upperback 19.781 2.31191 -0.606845
thorax 3.98663 0.0345847 -0.650334
lowerneck -2.2308 5.12018 14.2088
upperneck -5.60279 6.37509 -7.977
head -0.587899 3.00817 -4.64254
rclavicle -2.3059e-014 3.95581e-014
rhumerus 35.2505 18.7964 -70.3442
rradius 41.3139
rwrist -32.6381
rhand -22.2338 -2.25257
rfingers 7.12502
rthumb 4.18305 -32.1912
lclavicle -2.3059e-014 3.95581e-014
lhumerus 42.7172 -11.0783 64.3838
lradius 31.0215
lwrist 6.87219
lhand -21.9675 13.0907
lfingers 7.12502
lthumb 4.44013 43.0242
rfemur -58.6649 -4.23496 35.0214
rtibia 59.086
rfoot -16.968 -17.3556
rtoes -31.4716
lfemur -58.9136 7.4439 -15.927
ltibia 56.4046
lfoot -10.5809 4.02617
ltoes -6.748
236
root -4.04203 13.9302 5.43884 85.9404 -83.3619 -72.5497
lowerback 35.8001 4.47738 -1.28071
upperback 19.9014 2.288 -0.700287
thorax 3.9 0.0239785 -0.771287
lowerneck -2.32004 5.11587 14.3097
upperneck -6.46406 6.32743 -8.06837
head -0.82702 2.95707 -4.70353
rclavicle 2.06736e-014 3.4191e-014
rhumerus 37.1338 17.8453 -69.9552
rradius 41.3447
rwrist -33.899
rhand -22.698 -2.54331
rfingers 7.12502
rthumb 3.73475 -32.4903
lclavicle 2.06736e-014 3.4191e-014
lhumerus 45.3781 -11.0811 62.9279
lradius 30.7464
lwrist 7.94323
lhand -21.6225 13.2326
lfingers 7.12502
lthumb 4.77327 43.1589
rfemur -60.3932 -4.78229 36.0057
rtibia 56.8521
rfoot -16.0912 -17.0203
rtoes -30.2159
lfemur -60.8688 7.56712 -16.5505
ltibia 58.0146
lfoot -11.3765 3.6573
ltoes -6.90154
237
root -4.15795 13.8694 5.46991 84.8054 -83.5241 -70.1961
lowerback 36.4079 4.51436 -1.27696
upperback 19.984 2.27295 -0.805003
thorax 3.79945 0.0207977 -0.889851
lowerneck -2.30442 5.08419 14.4649
upperneck -7.24585 6.25779 -8.19805
head -1.0588 2.89786 -4.78725
rclavicle -6.12257e-014 1.98785e-015
rhumerus 38.8547 16.8566 -69.7303
rradius 41.3167
rwrist -35.2177
rhand -23.1994 -2.896
rfingers 7.12502
rthumb 3.25052 -32.851
lclavicle -6.12257e-014 1.98785e-015
lhumerus 47.7919 -11.004 61.7456
lradius 30.5033
lwrist 8.86444
lhand -21.2209 13.3572
lfingers 7.12502
lthumb 5.16107 43.2743
rfemur -62.0059 -5.30179 36.8806
rtibia 55.2808
rfoot -15.1564 -16.7861
rtoes -27.7145
lfemur -62.7723 7.65099 -17.218
ltibia 59.5949
lfoot -12.1388 3.3032
ltoes -6.84533
238
root -4.26982 13.8042 5.49864 83.8314 -83.7379 -68.0374
lowerback 36.9243 4.55155 -1.28557
upperback 20.0349 2.26727 -0.91743
thorax 3.69625 0.0257453 -1.01076
lowerneck -2.19543 5.02482 14.6901
upperneck -7.94085 6.16375 -8.38891
head -1.27828 2.82979 -4.90263
rclavicle 0 3.18055e-015
rhumerus 40.442 15.8671 -69.6292
rradius 41.2276
rwrist -36.5634
rhand -23.7155 -3.3176
rfingers 7.12502
rthumb 2.75212 -33.2796
lclavicle 0 3.18055e-015
lhumerus 49.9391 -10.8229 60.9977
lradius 30.2636
lwrist 9.53654
lhand -20.7829 13.4431
lfingers 7.12502
lthumb 5.58396 43.3495
rfemur -63.5659 -5.75979 37.6353
rtibia 54.4592
rfoot -14.3106 -16.7298
rtoes -24.3016
lfemur -64.6372 7.69537 -17.9021
ltibia 61.1659
lfoot -12.893 2.98489
ltoes -6.56874
